# xmcd
#
# Track frame offsets:
#  150
#  10880
#  24847
#  35325
#  48737
#  60139
#  71285
#  83150
#  93775
#  105092
#  114482
#  128845
#
# Disc length: 1856 seconds
#
# Revision: 0
# Processed by: cddbd v1.5.1PL2 Copyright (c) Steve Scherf et al.
# Submitted via: Collectorz.com_Music_Collector 6.10
#
DISCID=7f073e0c
DTITLE=Jimmy Hughes - Steal Away
DYEAR=2006
DGENRE=Blues - Soul-Blues
TTITLE0=Lovely Ladies
TTITLE1=There Is Something On Your Mind
TTITLE2=A Shot Of Rhythm and Bllues
TTITLE3=Neighbor, Neighbor
TTITLE4=Everybody Let's Dance
TTITLE5=Steal Away
TTITLE6=Try Me
TTITLE7=I'm Gonna Rise Again
TTITLE8=I Tried To Tell You
TTITLE9=I'm Getting Better
TTITLE10=Stormy Monday Blues
TTITLE11=I Want Justice
EXTD=
EXTT0=
EXTT1=
EXTT2=
EXTT3=
EXTT4=
EXTT5=
EXTT6=
EXTT7=
EXTT8=
EXTT9=
EXTT10=
EXTT11=
PLAYORDER=
